<?xml version="1.0" encoding="UTF-8" standalone="no"?>
<svg
   xmlns:dc="http://purl.org/dc/elements/1.1/"
   xmlns:cc="http://creativecommons.org/ns#"
   xmlns:rdf="http://www.w3.org/1999/02/22-rdf-syntax-ns#"
   xmlns:svg="http://www.w3.org/2000/svg"
   xmlns="http://www.w3.org/2000/svg"
   xmlns:sodipodi="http://sodipodi.sourceforge.net/DTD/sodipodi-0.dtd"
   xmlns:inkscape="http://www.inkscape.org/namespaces/inkscape"
   id="Layer_1"
   data-name="Layer 1"
   viewBox="0 0 2776.58 1444.82"
   version="1.1"
   sodipodi:docname="mist_avatar_green.svg"
   inkscape:version="0.92.4 (unknown)">
  <metadata
     id="metadata300">
    <rdf:RDF>
      <cc:Work
         rdf:about="">
        <dc:format>image/svg+xml</dc:format>
        <dc:type
           rdf:resource="http://purl.org/dc/dcmitype/StillImage" />
        <dc:title>mist_logo_white_2</dc:title>
      </cc:Work>
    </rdf:RDF>
  </metadata>
  <sodipodi:namedview
     pagecolor="#ffffff"
     bordercolor="#666666"
     borderopacity="1"
     objecttolerance="10"
     gridtolerance="10"
     guidetolerance="10"
     inkscape:pageopacity="0"
     inkscape:pageshadow="2"
     inkscape:window-width="1299"
     inkscape:window-height="713"
     id="namedview298"
     showgrid="false"
     inkscape:zoom="0.14064064"
     inkscape:cx="1949.5639"
     inkscape:cy="551.39973"
     inkscape:window-x="67"
     inkscape:window-y="27"
     inkscape:window-maximized="1"
     inkscape:current-layer="Layer_1" />
  <defs
     id="defs193">
    <style
       id="style191">.cls-1,.cls-2,.cls-4{fill:#fff;}.cls-2{isolation:isolate;font-size:130.53px;font-family:Arial-BoldMT, Arial;font-weight:700;}.cls-3{letter-spacing:-0.06em;}.cls-4{stroke:#000;stroke-width:0.3px;}</style>
  </defs>
  <title
     id="title195">mist_logo_white_2</title>
  <path
     class="cls-1"
     d="M1127.65,548.95l-1.22-1.55Z"
     transform="translate(-102.78 -27.48)"
     id="path197"
     style="fill:#197477;fill-opacity:1" />
  <path
     class="cls-1"
     d="M1125.75,546.53l-1.1-1.44Z"
     transform="translate(-102.78 -27.48)"
     id="path199"
     style="fill:#197477;fill-opacity:1" />
  <path
     class="cls-1"
     d="M1130,551.86l-1.77-2.18Z"
     transform="translate(-102.78 -27.48)"
     id="path201"
     style="fill:#197477;fill-opacity:1" />
  <path
     class="cls-1"
     d="M1148.09,547.44c-.8-.93-1.58-1.88-2.36-2.83.77,1,1.56,1.9,2.36,2.84Z"
     transform="translate(-102.78 -27.48)"
     id="path203"
     style="fill:#197477;fill-opacity:1" />
  <path
     class="cls-1"
     d="M1106.16,427.19c5.08,3.81,10.17,11.44,14,16.52a340.46,340.46,0,0,0,28,30.76V100.55c0-10.17-6.35-16.52-16.52-16.52H707.07c-8.9,0-15.25,7.63-16.52,16.52L653.69,400.5c0,10.17-3.81,16.52-6.35,16.52s-6.35-5.08-7.63-15.25L594,98c-1.27-8.9-7.63-15.25-15.25-15.25H169.45c-7.63,0-12.71,7.63-12.71,15.25V1212.64c0,6.36,6.35,14,12.71,14v1.27H428.73c10.17,0,15.25-6.36,15.25-16.52V764c0-12.71,2.54-20.33,7.63-20.33s10.17,5.08,15.25,30.5l69.9,435.94c2.54,10.17,8.9,16.52,16.52,16.52H726.13c7.63,0,15.25-3.81,16.52-12.71l78.8-467.71c3.81-24.15,7.63-30.5,10.17-30.5,3.81,0,5.08,3.81,5.08,16.52v479.15c0,10.17,7.63,16.52,16.52,16.52h278.34c8.9,0,16.52-6.36,16.52-15.25V569.76a151.66,151.66,0,0,1-16.52-15.47c.79.86,1.59,1.7,2.4,2.53-8.86,0-19-1.28-27.82-2.54-24.15-3.81-44.48-14-61-31.77-8.9-10.17-19.06-21.61-22.88-35.59-1.27-5.08-2.54-10.17-1.27-15.25,1.27-3.81,3.81-14,10.17-12.71s7.63,12.71,10.17,16.52c2.54,5.08,6.35,10.17,10.17,15.25,7.63,10.17,15.25,19.06,25.42,26.69,11.13,8.66,24.67,12.5,38.27,15-4.52-6-8.06-13-11.58-18.85-5.08-8.9-10.17-19.06-12.71-29.23-1.27-6.35-3.81-11.44-5.08-17.79,0-1.27-2.54-8.9-2.54-8.9,5.08-8.9,20.34,17.79,21.61,20.33l15.25,26.69A295.44,295.44,0,0,0,1138.28,531a17.33,17.33,0,0,1,4.68,2.95h5.13v-34a189.13,189.13,0,0,1-22.87-25.73c-6.36-8.9-12.71-19.06-16.52-29.23-1.27-3.81-7.63-12.71-6.35-17.79C1103.61,423.38,1103.61,424.65,1106.16,427.19Z"
     id="path205"
     transform="translate(-102.78 -27.48)"
     style="fill:#197477;fill-opacity:1" />
  <path
     class="cls-1"
     d="M1124.65,545.09l-.07-.09,1.31,1.71-.14-.18Z"
     transform="translate(-102.78 -27.48)"
     id="path207"
     style="fill:#197477;fill-opacity:1" />
  <path
     class="cls-1"
     d="M1128.23,549.68l-.06-.07,1.83,2.26h0Z"
     transform="translate(-102.78 -27.48)"
     id="path209"
     style="fill:#197477;fill-opacity:1" />
  <path
     class="cls-1"
     d="M1126.43,547.4l-.07-.09,1.52,1.92-.22-.28Z"
     transform="translate(-102.78 -27.48)"
     id="path211"
     style="fill:#197477;fill-opacity:1" />
  <path
     class="cls-1"
     d="M1125.75,546.53l.14.18.47.61.07.09Z"
     transform="translate(-102.78 -27.48)"
     id="path213"
     style="fill:#197477;fill-opacity:1" />
  <path
     class="cls-1"
     d="M1127.65,548.95l.22.28.3.38.06.07Z"
     transform="translate(-102.78 -27.48)"
     id="path215"
     style="fill:#197477;fill-opacity:1" />
  <path
     class="cls-1"
     d="M1130,551.86h0l0,0Z"
     transform="translate(-102.78 -27.48)"
     id="path217"
     style="fill:#197477;fill-opacity:1" />
  <path
     class="cls-1"
     d="M1123.94,544.15l.08.1.56.75.07.09Z"
     transform="translate(-102.78 -27.48)"
     id="path219"
     style="fill:#197477;fill-opacity:1" />
  <path
     class="cls-1"
     d="M1130,551.9l2,2.39Z"
     transform="translate(-102.78 -27.48)"
     id="path221"
     style="fill:#197477;fill-opacity:1" />
  <path
     class="cls-1"
     d="M1125.89,546.71l.47.61Z"
     transform="translate(-102.78 -27.48)"
     id="path223"
     style="fill:#197477;fill-opacity:1" />
  <path
     class="cls-1"
     d="M1127.87,549.23l.3.38Z"
     transform="translate(-102.78 -27.48)"
     id="path225"
     style="fill:#197477;fill-opacity:1" />
  <path
     class="cls-1"
     d="M1124,544.25l.56.75Z"
     transform="translate(-102.78 -27.48)"
     id="path227"
     style="fill:#197477;fill-opacity:1" />
  <path
     class="cls-1"
     d="M1130,551.87l2,2.42-2-2.39Z"
     transform="translate(-102.78 -27.48)"
     id="path229"
     style="fill:#197477;fill-opacity:1" />
  <path
     class="cls-1"
     d="M1145.73,544.6l-.75-.94Z"
     transform="translate(-102.78 -27.48)"
     id="path231"
     style="fill:#197477;fill-opacity:1" />
  <path
     class="cls-1"
     d="M2446.17,701c-15.07-12.21-32.58-17.11-52.54-15.86-16.52,1.27-33,6.35-49.57,8.9-10.17,1.27-20.33,2.54-30.5,2.54a49.09,49.09,0,0,1-6.35-.49v16.94c1.4.53,2.7,1,3.81,1.35,11.44,3.81,24.15,3.81,36.86,2.54q38.13-3.81,76.26-11.44c6.94-1.16,14.92-2.32,22-4.44Z"
     transform="translate(-102.78 -27.48)"
     id="path233"
     style="fill:#197477;fill-opacity:1" />
  <path
     class="cls-1"
     d="M2464.08,727.69l-1.81-1.82Z"
     transform="translate(-102.78 -27.48)"
     id="path235"
     style="fill:#197477;fill-opacity:1" />
  <path
     class="cls-1"
     d="M2474.48,724.4l.73-.06Z"
     transform="translate(-102.78 -27.48)"
     id="path237"
     style="fill:#197477;fill-opacity:1" />
  <path
     class="cls-1"
     d="M2472.17,724.54l.72,0Z"
     transform="translate(-102.78 -27.48)"
     id="path239"
     style="fill:#197477;fill-opacity:1" />
  <path
     class="cls-1"
     d="M2454.81,720q3.36-.47,6.72-.91Q2458.17,719.55,2454.81,720Z"
     transform="translate(-102.78 -27.48)"
     id="path241"
     style="fill:#197477;fill-opacity:1" />
  <path
     class="cls-1"
     d="M2476.92,724.2l.4,0Z"
     transform="translate(-102.78 -27.48)"
     id="path243"
     style="fill:#197477;fill-opacity:1" />
  <path
     class="cls-1"
     d="M2781.28,82.75H2128c-8.89,0-14,6.36-14,15.26V368.72c0,8.9,11.44,21.61,20.34,21.61h152.51c11.44,0,20.34,7.62,20.34,17.79V679.54c3.06-.62,6.1-1.42,8.89-2l22.88-3.81c15.25-2.54,30.5-5.08,47-5.08,8.9,0,17.79,0,26.69,1.27,17.38,3.26,34.75,11.17,50.55,22.12a49.27,49.27,0,0,1,13.57,10.79,155.87,155.87,0,0,1,17.23-1.15c24.15,0,45.75,6.36,64.82,22.88,10.17,8.9,21.6,19.07,28,31.77,2.54,5.09,3.81,10.17,2.54,15.26,0,5.08-1.27,14-7.62,14s-8.9-11.44-12.71-15.26a137.61,137.61,0,0,0-11.44-14c-8.9-8.89-17.8-16.52-28-22.87-11.63-7-24.32-9.69-37.11-10.11,0,.07,0,.14,0,.2a73.5,73.5,0,0,1,6.76,8.89A4.27,4.27,0,0,1,2500,735a4.61,4.61,0,0,1,1.38,1.82c1.38,1.51,2.74,3,4.1,4.31,6.35,8.9,12.71,17.8,17.79,28,2.54,5.09,5.09,11.44,7.63,16.53,0,1.27,3.81,7.62,3.81,8.89-2.54,10.17-22.88-15.25-24.15-17.79-6.35-7.63-12.71-16.52-19.06-24.15-10.66-7.1-19.11-16.42-27.41-24.85a10.17,10.17,0,0,0-1.82.7c-2.49-3-5-5.77-7.48-8.37-17,2.38-34,5.37-51,8.37-3.82,1.27-8.9,1.27-12.71,2.54-16.53,2.55-33.05,2.55-50.84,3.82-11.44,0-21.61,0-31.78-3.82l-1.26-.52v19c16.68,2.09,34.3-4.82,50.83-9.54a167.27,167.27,0,0,1,34.32-7.63c11.43-1.27,22.87-1.27,34.31,1.28,25.42,5.08,47,21.6,64.82,39.39,7.63,7.63,15.25,16.53,20.34,25.42,2.54,3.82,8.89,11.44,8.89,16.53,0,3.81-1.27,2.54-3.81,1.27-6.36-3.82-11.44-10.17-16.52-14-33.05-30.51-69.91-57.2-118.2-49.57-20.34,3.81-39.4,10.17-59.74,10.17a85,85,0,0,1-15.24-1.43V1205c0,12.71,11.44,21.61,21.6,21.61h259.28c12.71,0,21.61-10.17,21.61-20.33V411.93c0-14,7.62-21.6,17.79-21.6H2780c12.71,0,21.6-8.9,21.6-21.61V100.55C2801.61,89.11,2791.44,82.75,2781.28,82.75Z"
     transform="translate(-102.78 -27.48)"
     id="path245"
     style="fill:#197477;fill-opacity:1" />
  <path
     class="cls-1"
     d="M2482.43,723.67l.36,0Z"
     transform="translate(-102.78 -27.48)"
     id="path247"
     style="fill:#197477;fill-opacity:1" />
  <path
     class="cls-1"
     d="M2454.81,720h0l4.77-.65Z"
     transform="translate(-102.78 -27.48)"
     id="path249"
     style="fill:#197477;fill-opacity:1" />
  <path
     class="cls-1"
     d="M2468.61,718.23c-1.13-1.13-2.31-2.26-3.51-3.39l.84.79C2466.85,716.5,2467.75,717.37,2468.61,718.23Z"
     transform="translate(-102.78 -27.48)"
     id="path251"
     style="fill:#197477;fill-opacity:1" />
  <path
     class="cls-1"
     d="M1219.27,532.68a281.84,281.84,0,0,1,47,3.81c11.44,1.27,21.61,2.54,31.77,7.63a59.74,59.74,0,0,1,15.25,11.44c3.81,3.81,6.35,10.17,11.44,12.71,5.08,3.81,12.71-1.27,17.79-5.08,5.08-5.08-11.44-19.06-15.25-22.88a45.17,45.17,0,0,0-20.34-14c-17.79-6.36-36.86-2.54-54.65,0-10.17,1.27-21.6,2.54-31.77,2.54-12.71,0-24.15-1.27-36.86-6.36a96,96,0,0,1-18.82-9.48l0,20.82c12.62-.13,25.24-.43,37.85-1.17Z"
     transform="translate(-102.78 -27.48)"
     id="path253"
     style="fill:#197477;fill-opacity:1" />
  <path
     class="cls-1"
     d="M1205.29,578.44c16.52,0,33-1.27,49.57-1.27,10.17,0,20.34,0,30.5,1.27,8.9,1.27,17.79,6.35,26.69,5.08,1.27-10.17-12.71-19.06-20.33-22.88-11.44-5.08-24.15-6.35-35.59-7.62-25.42-1.27-50.84-1.27-77.53,0-4.31,0-9,.4-13.68.76V563C1176.48,572.5,1189.32,577.44,1205.29,578.44Z"
     transform="translate(-102.78 -27.48)"
     id="path255"
     style="fill:#197477;fill-opacity:1" />
  <path
     class="cls-1"
     d="M1450.58,866.94c-7.63-1.27-10.17-7.63-3.81-11.44,3.72-1.86,8.12-2.36,12.71-3.49V824.06c-.42.29-.84.59-1.27.94-6.36,6.35-11.44,15.25-19.06,20.34-5.08,2.54-17.79,3.81-19.06-2.54-2.54-6.35,12.71-8.9,17.79-10.17a30.29,30.29,0,0,0,14-7.63c12.71-12.71-7.62-28-17.79-14-7.62,8.9-11.44,19.06-24.15,22.88-6.35,1.27-22.88,1.27-19.06-8.9,2.54-7.63,16.52-5.08,22.88-6.35,5.08-1.27,12.71-3.81,15.25-8.9,3.81-6.35,0-15.25-6.36-17.79s-11.44,3.81-15.25,8.9c-6.35,8.9-15.25,14-25.42,16.52-3.81,1.27-16.52,3.81-17.79-3.81,0-7.62,17.79-8.9,21.61-11.44,6.35-2.54,11.44-5.08,15.25-10.17,5.08-7.63,5.08-14-2.54-17.79-14-7.63-20.34,12.71-29.23,19.06-3.81,2.54-29.23,14-26.69,1.27s25.42-14,34.32-21.61c10.17-7.63,1.27-24.15-10.17-17.79-6.35,2.54-10.17,10.17-15.25,14-5.08,5.08-11.44,8.9-19.06,8.9-3.81,0-10.17,1.27-11.44-5.08,0-5.08,7.63-8.9,11.44-11.44,7.63-3.81,33-10.17,24.15-24.15-8.9-12.71-20.33,2.54-28,5.08-3.81,1.27-16.52,3.81-15.25-3.81,0-5.08,10.17-10.17,14-11.44,2.54-1.27,8.9,0,10.17-2.54,5.08-5.08-10.17-17.79-12.71-21.61-8.9-10.17-16.52-21.61-20.34-35.59-2.54-8.9-1.27-17.79-1.27-28,0-8.9,0-16.52,2.54-25.42,2.54-7.63,6.35-15.25-3.81-17.79-6.35-2.54-14-1.27-20.34-1.27a162,162,0,0,0-24.15,1.27c-15.25,0-31.77,1.27-47-1.27-8.9-1.27-17.79-2.54-25.42-5.08a105,105,0,0,1-20-8.68l.92,630.17a15.45,15.45,0,0,0,15.25,15.25h263.09a15.46,15.46,0,0,0,15.25-15.25V866.73A18.65,18.65,0,0,1,1450.58,866.94Z"
     transform="translate(-102.78 -27.48)"
     id="path257"
     style="fill:#197477;fill-opacity:1" />
  <path
     class="cls-1"
     d="M1229.44,509.8c20.34,0,40.67-5.08,61-2.54,21.61,2.54,39.4,14,57.19,28,3.81,2.54,8.9,5.08,11.44,8.9,6.35,6.35,8.9,0,15.25-3.81,2.54-2.54,6.35-3.81,10.17-5.08,7.63-1.27,15.25-1.27,22.88-1.27s15.25,2.54,22.88,3.81c6.35,1.27,14,6.35,20.33,3.81,3.81-1.27,5.08-3.81,7.63-7.62a6.36,6.36,0,0,0,1.27-2.53V343.3a15.45,15.45,0,0,0-15.25-15.25H1179.87a15.45,15.45,0,0,0-15.25,15.25l.21,145.27C1183.14,502,1204,510.47,1229.44,509.8Z"
     transform="translate(-102.78 -27.48)"
     id="path259"
     style="fill:#197477;fill-opacity:1" />
  <path
     class="cls-1"
     d="M1477.27,825.72V842.8h0C1482.06,836.82,1483.46,829.72,1477.27,825.72Z"
     transform="translate(-102.78 -27.48)"
     id="path261"
     style="fill:#197477;fill-opacity:1" />
  <path
     class="cls-1"
     d="M2089.87,467.86c-3.81,6.35-3.81,14,3.81,17.79.85.34,1.7.65,2.54.93v-24.4A21.82,21.82,0,0,0,2089.87,467.86Z"
     transform="translate(-102.78 -27.48)"
     id="path263"
     style="fill:#197477;fill-opacity:1" />
  <path
     class="cls-1"
     d="M2073.35,445c-6.35,2.54-12.71,7.63-15.25,14-3.81,8.9,3.81,17.79,14,17.79,8.9,0,11.44-10.17,15.25-16.52a57,57,0,0,1,8.9-12V234c0-83.88-68.63-152.52-152.52-152.52H1629.79c-83.88,0-152.52,68.63-152.52,152.52V514c6.84-2.6,13.86-1.69,21.61,2.18,3.81,1.27,15.25,10.17,5.08,10.17-9.31,0-17.56-5.33-26.7-2.31v25.62a36.85,36.85,0,0,0,7.63-3c8.9-5.08,15.25-5.08,24.15-2.54,3.81,1.27,19.06,7.63,11.44,11.44-6.36,3.81-17.79-3.81-25.42-3.81-7.62,1.27-11.44,6.35-8.9,14,2.54,6.36,5.08,6.36,10.17,3.81,7.63-3.81,12.71-6.35,21.61-5.08,7.63,1.27,15.25,3.81,21.61,8.9-7.63,2.54-15.25,1.27-24.15,0-6.36,0-19.06-2.54-17.79,7.63,3.81,21.61,30.5,2.54,40.67,2.54s19.06,5.08,28,11.44c-10.17,1.27-19.06-3.81-29.23-5.08-5.08,0-11.44,2.54-8.9,8.9,7.63,16.52,34.32,1.27,45.76,1.27,2.54,0,22.88,1.27,16.52,7.63-3.81,5.08-19.06-2.54-25.42-2.54-3.81,0-10.17,1.27-10.17,6.35s8.9,7.63,12.71,8.9c5.08,1.27,10.17,0,15.25-2.54,7.63-3.81,14-8.9,22.88-6.35,3.81,1.27,19.06,8.9,8.9,12.71-6.36,2.54-16.52-6.36-24.15-5.08-3.81,0-10.17,2.54-11.44,6.35s2.54,3.81,5.08,5.08c3.81,2.54,5.08,7.63,10.17,7.63,3.81,0,8.9-3.81,11.44-5.08,7.63-3.81,14-1.27,21.61,1.27,2.54,1.27,16.52,5.08,11.44,10.17-3.81,3.81-16.52-3.81-21.61-5.08-2.54,0-8.9,1.27-10.17,3.81-3.81,5.08,10.17,14,14,14s7.63-2.54,10.17-3.81c8.9-3.81,16.52-2.54,24.15,2.54,5.08,2.54,8.9,8.9,1.27,8.9-6.35,0-11.44-5.08-17.79-3.81-7.63,1.27-7.63,5.08-3.81,10.17,8.9,10.17,15.25,2.54,25.42,0,7.63-2.54,17.79-1.27,25.42,2.54,8.9,3.81,2.54,8.9-5.08,6.35-8.9-2.54-16.52-8.9-24.15-1.27-3.81,3.81-1.27,6.35,2.54,8.9s6.35,6.35,10.17,7.63,6.35-1.27,8.9-3.81c3.81-3.81,7.63-3.81,12.71-6.35,10.17-2.54,17.79,0,26.69,3.81-11.44,5.08-22.88-5.08-34.32,2.54q-7.63,3.81-3.81,11.44c8.9,14,17.79,6.35,29.23,1.27,6.36-2.54,12.71-2.54,20.34-1.27,2.54,0,12.71,3.81,10.17,7.63-2.54,2.54-11.44-1.27-12.71-1.27-7.62-1.27-35.59,0-28,14,2.54,3.81,10.17,10.17,15.25,10.17s8.9-6.35,12.71-10.17c14-11.44,26.69-7.63,38.13,5.08-11.44,2.54-39.4-6.36-41.94,11.44a10.92,10.92,0,0,0,12.71,12.71c8.9-1.27,14-10.17,22.88-11.44,10.17-1.27,19.06,6.35,25.42,12.71-10.17-2.54-24.15-5.08-34.31,1.27-11.44,7.63-2.54,20.34,3.81,28,8.9,11.44,19.06,20.33,26.69,33a314,314,0,0,0,26.69,34.32c8.9,10.17,17.79,19.06,25.42,30.5,6.35,10.17,8.9,21.61,12.71,31.77a99.54,99.54,0,0,1,5.08,33c3.81,25.42-6.36,49.57-22.88,67.36-34.31,38.13-87.7,47-130.91,19.06a153.31,153.31,0,0,1-30.5-26.69c-5.08-5.08-10.17-10.17-14-15.25a69.9,69.9,0,0,1-8.9-11.44c-2.54-2.54-3.81-3.81-6.35-3.81s-3.81,2.54-6.35,1.27c-2.54-2.54,0-7.63,2.54-10.17-7.62-15.25-15.25-3.81-25.42,1.27-3.81,2.54-11.44,5.08-15.25,2.54s-2.54-5.08,1.27-7.62c6.35-3.81,28-1.27,25.42-14-2.54-11.44-17.79-10.17-25.42-6.35-3.81,1.27-25.42,11.44-20.34-1.27,5.08-11.44,24.15-1.27,29.23-10.17,5.08-7.63-12.71-16.52-19.06-14-8.9,3.81-16.52,16.52-28,14-5.08-1.27-6.35-6.35-3.81-11.44,3.81-5.08,11.44-3.81,17.79-5.08,8.9,0,11.44-10.17,6.35-16.52-7.62-7.63-19.06,1.27-26.69,5.08-5.08,2.54-12.71,7.63-19.06,5.08-5.08-1.27-7.63-5.08-2.54-7.63,5.08-3.81,15.25-2.54,21.61-3.81,14-3.81,12.71-19.06-2.54-20.34-14-1.27-16.52,19.06-29.23,22.88-3.81,1.27-14,1.27-16.52-5.08-1.27-5.08,5.08-7.62,8.9-8.9,8.9-2.54,31.77-7.63,22.88-22.88-10.17-15.25-19.06-1.27-26.69,7.63-6.37,8.49-17.17,15.21-28,15v189.65c0,83.88,68.63,152.51,152.52,152.51h313.93c83.88,0,152.52-68.63,152.52-152.51V751.21c-5.84-1.56-13.22-4.17-7.63-8.83,2.09-1.26,4.75-1.54,7.63-1.41v-9.73a34.7,34.7,0,0,1-8.9,1,43.9,43.9,0,0,1-22.88-6.35c7.63-3.81,15.25-2.54,24.15-3.81a56.94,56.94,0,0,0,7.63-.37V703.53c-10-.82-24.48,11.25-31.78,12.16-10.17,1.27-20.33-2.54-29.23-6.35,10.17-2.54,19.06,1.27,29.23,1.27,5.08,0,11.44-3.81,7.63-10.17-10.17-15.25-34.31,3.81-45.75,5.08-2.54,0-21.61,2.54-16.52-5.08,3.81-5.08,20.34,0,25.42-1.27,3.81-1.27,10.17-3.81,8.9-7.63,0-5.08-10.17-6.35-14-6.35-5.08-1.27-10.17,1.27-14,3.81-7.62,5.08-12.71,11.44-22.88,10.17-3.81,0-20.34-6.35-11.44-11.44,6.35-3.81,17.79,3.81,25.42,1.27,2.54-1.27,10.17-3.81,10.17-7.62s-2.54-3.81-5.08-5.08c-3.81-2.54-6.35-6.36-11.44-6.36-3.81,0-7.63,5.08-11.44,6.36-7.63,5.08-14,2.54-21.61,1.27-2.54,0-16.52-2.54-12.71-8.9,3.81-5.08,16.52,2.54,21.61,1.27,2.54,0,8.9-2.54,10.17-5.08,3.81-5.08-11.44-12.71-16.52-11.44-3.81,0-6.36,3.81-10.17,6.35-7.63,5.08-16.52,3.81-24.15,1.27-5.08-2.54-10.17-7.63-1.27-7.63,6.35-1.27,11.44,3.81,17.79,1.27,6.35-1.27,6.35-6.35,1.27-10.17-10.17-8.9-15.25,0-25.42,3.81-7.63,2.54-17.79,3.81-25.42,1.27-10.17-2.54-3.81-7.63,3.81-6.35,8.9,1.27,17.79,6.35,24.15-2.54,3.81-5.08,1.27-6.36-3.81-8.9-3.81-1.27-7.63-5.08-11.44-6.35-5.08-1.27-5.08,2.54-8.9,5.08-2.54,3.81-7.62,5.08-11.44,7.63-8.9,3.81-17.79,2.54-26.69,0,10.17-6.36,22.88,1.27,34.32-7.63,3.81-3.81,5.08-7.63,2.54-11.44-10.17-12.71-19.06-2.54-29.23,2.54q-9.53,5.72-19.06,3.81c-2.54,0-14-2.54-11.44-6.35,1.27-2.54,11.44,0,14,0,7.63,1.27,35.59-5.08,25.42-17.79-2.54-3.81-11.44-8.9-16.52-7.63s-7.62,7.63-11.44,11.44c-12.71,14-25.42,11.44-38.13,0,10.17-5.08,40.67,1.27,39.4-16.52,0-7.63-6.35-14-14-11.44s-12.71,11.44-20.34,14c-10.17,3.81-19.06-3.81-28-8.9,10.17,1.27,24.15,1.27,33-6.35,10.17-8.9,0-20.34-7.63-26.69-10.17-10.17-21.6-17.79-31.77-28s-20.34-20.34-30.5-29.23-20.34-16.52-29.23-26.69A94.71,94.71,0,0,1,1718,446.57a52,52,0,0,1-6.51-10.12c-3.24-6.75-8-14-8.46-21.73-1.72-5.19-3.32-10.57-3.53-15.94a12.18,12.18,0,0,1-.22-1.84c-1.63-8.91,4.65-27.37,15.71-43.46,28-41.94,80.07-58.46,127.1-38.13a120.5,120.5,0,0,1,34.32,21.61c5.08,3.81,11.44,8.9,16.52,12.71,3.81,3.81,7.63,6.35,11.44,10.17,2.54,2.54,3.81,3.81,7.63,2.54,2.54,0,3.81-3.81,6.36-2.54,3.81,1.27,1.27,7.63,0,10.17,10.17,14,15.25,2.54,25.42-5.08,3.81-2.54,10.17-6.35,15.25-5.08,3.81,1.27,3.81,5.08,0,7.63-6.35,5.08-28,5.08-22.88,16.52,3.81,11.44,19.06,6.35,26.69,2.54,3.81-2.54,22.88-15.25,20.34-2.54s-24.15,5.08-28,14,15.25,14,20.34,11.44c8.9-5.08,14-19.06,25.42-17.79,5.08,1.27,7.63,6.35,5.08,10.17-3.81,6.36-11.44,6.36-16.52,7.63-8.9,2.54-10.17,11.44-3.81,17.79,8.9,6.35,19.06-3.81,25.42-8.9,5.08-3.81,11.44-8.9,17.79-7.63,5.08,0,7.63,3.81,3.81,7.63-5.08,5.08-15.25,5.08-20.34,7.63-14,5.08-8.9,21.61,5.08,20.34s14-21.61,25.42-26.69c3.81-1.27,14-2.54,16.52,2.54s-3.81,7.63-7.62,10.17c-8.9,3.81-30.5,12.71-19.06,25.42s19.06-1.27,25.42-11.44c6.35-11.44,19.06-20.34,31.77-19.06,6.35,1.27,6.35,3.81,2.54,7.63C2087.33,439.89,2079.7,442.44,2073.35,445Z"
     transform="translate(-102.78 -27.48)"
     id="path265"
     style="fill:#197477;fill-opacity:1" />
  <path
     class="cls-1"
     d="M1506.51,855.5c5.08-7.62-1.27-17.79-10.17-19.06s-12.71,8.9-17.79,15.25q-.61.86-1.28,1.72v17.16c4.32-1.45,8.76-2,12.71-3.63C1496.34,864.4,1504,861.86,1506.51,855.5Z"
     transform="translate(-102.78 -27.48)"
     id="path267"
     style="fill:#197477;fill-opacity:1" />
  <path
     class="cls-1"
     d="M1165.88,295a15.46,15.46,0,0,0,15.25,15.25h263.09A15.46,15.46,0,0,0,1459.48,295V96.73a15.45,15.45,0,0,0-15.25-15.25H1179.87a15.45,15.45,0,0,0-15.25,15.25L1165.88,295Z"
     transform="translate(-102.78 -27.48)"
     id="path269"
     style="fill:#197477;fill-opacity:1" />
  <text
     class="cls-2"
     transform="scale(0.99498745,1.0050378)"
     id="text275"
     style="font-weight:700;font-size:850.50170898px;font-family:Arial-BoldMT, Arial;isolation:isolate;fill:#197477;fill-opacity:1;stroke-width:6.51574183"
     x="-6456.6812"
     y="1885.0576">
    <tspan
       x="774.03833"
       y="1885.0576"
       id="tspan273"
       style="fill:#197477;fill-opacity:1;stroke-width:6.51574183">3.0</tspan>
  </text>
  <path
     class="cls-1"
     d="M1132,554.29h-.43c.79.86,1.59,1.7,2.4,2.53h.14Z"
     transform="translate(-102.78 -27.48)"
     id="path277"
     style="fill:#197477;fill-opacity:1" />
  <line
     class="cls-1"
     x1="2154.86"
     y1="361.57"
     x2="1032.6"
     y2="361.57"
     id="line279"
     style="fill:#197477;fill-opacity:1" />
  <line
     class="cls-4"
     x1="54"
     x2="54"
     y2="36"
     id="line281"
     style="fill:#197477;fill-opacity:1" />
  <line
     class="cls-4"
     y1="54"
     x2="36"
     y2="54"
     id="line283"
     style="fill:#197477;fill-opacity:1" />
  <line
     class="cls-4"
     y1="1390.82"
     x2="36"
     y2="1390.82"
     id="line285"
     style="fill:#197477;fill-opacity:1" />
  <line
     class="cls-4"
     x1="54"
     y1="1444.82"
     x2="54"
     y2="1408.82"
     id="line287"
     style="fill:#197477;fill-opacity:1" />
  <line
     class="cls-4"
     x1="2722.58"
     x2="2722.58"
     y2="36"
     id="line289"
     style="fill:#197477;fill-opacity:1" />
  <line
     class="cls-4"
     x1="2776.58"
     y1="54"
     x2="2740.58"
     y2="54"
     id="line291"
     style="fill:#197477;fill-opacity:1" />
  <line
     class="cls-4"
     x1="2776.58"
     y1="1390.82"
     x2="2740.58"
     y2="1390.82"
     id="line293"
     style="fill:#197477;fill-opacity:1" />
  <line
     class="cls-4"
     x1="2722.58"
     y1="1444.82"
     x2="2722.58"
     y2="1408.82"
     id="line295"
     style="fill:#197477;fill-opacity:1" />
</svg>
